<svg xmlns="http://www.w3.org/2000/svg" version="1.1" xmlns:xlink="http://www.w3.org/1999/xlink" xmlns:svgjs="http://svgjs.dev/svgjs" width="128" height="128" viewBox="0 0 128 128"><g transform="matrix(0.6280487804878049,0,0,0.6280487804878049,24.027594422715076,12.760752631578946)"><svg viewBox="0 0 74 95" data-background-color="#ffffff" preserveAspectRatio="xMidYMid meet" height="164" width="128" xmlns="http://www.w3.org/2000/svg" xmlns:xlink="http://www.w3.org/1999/xlink"><g id="tight-bounds" transform="matrix(1,0,0,1,-0.2050125845016737,-0.24049999999999727)"><svg viewBox="0 0 74.41002516900335 95.481" height="95.481" width="74.41002516900335"><g><svg viewBox="0 0 74.41002516900335 95.481" height="95.481" width="74.41002516900335"><g><svg viewBox="0 0 74.41002516900335 95.481" height="95.481" width="74.41002516900335"><g id="textblocktransform"><svg viewBox="0 0 74.41002516900335 95.481" height="95.481" width="74.41002516900335" id="textblock"><g><svg viewBox="0 0 74.41002516900335 95.481" height="95.481" width="74.41002516900335"><g><svg viewBox="0 0 74.41002516900335 95.481" height="95.481" width="74.41002516900335"><g><svg xmlns="http://www.w3.org/2000/svg" xmlns:xlink="http://www.w3.org/1999/xlink" version="1.1" x="0" y="0" viewBox="14.275212570628568 5 70.20093073201811 90.08" enable-background="new 0 0 100 100" xml:space="preserve" height="95.481" width="74.41002516900335" class="icon-icon-0" data-fill-palette-color="accent" id="icon-0"><g fill="#6a4e93" data-fill-palette-color="accent"><path fill="#6a4e93" d="M49.359 62.686c-2.017 0-3.639 0.691-4.821 2.054-2.065 2.381-2.628 6.622-1.723 12.968 0.813 5.691 2.608 12.476 6.543 12.476 3.936 0 5.731-6.784 6.544-12.476 0.906-6.346 0.342-10.587-1.723-12.967C52.998 63.377 51.376 62.686 49.359 62.686z" data-fill-palette-color="accent"></path><path fill="#6a4e93" d="M45.715 27.304c-0.756-0.815-1.768-1.229-3.006-1.229-3.706 0-4.912 3.214-5.049 5.011-0.907 3.863-2.147 5.358-3.581 7.088-0.944 1.138-2.014 2.428-3.066 4.466-1.034 2-1.25 3.799-0.646 5.348 0.812 2.079 2.825 2.832 2.91 2.862 0.01 0.003 0.021 0.008 0.032 0.012 0.828 0.274 1.656 0.413 2.459 0.413 7.682 0 11.012-12.147 11.27-15.584C47.242 32.973 47.521 29.25 45.715 27.304z" data-fill-palette-color="accent"></path><path fill="#6a4e93" d="M64.639 38.174c-1.434-1.73-2.674-3.226-3.582-7.088-0.136-1.796-1.342-5.011-5.047-5.011-1.238 0-2.25 0.413-3.006 1.229-1.807 1.946-1.527 5.531-1.324 8.25C51.938 38.99 55.27 51 62.949 51c0.002 0 0.002 0 0.002 0 0.803 0 1.63-0.001 2.457-0.275 0.012-0.004 0.022 0.061 0.033 0.057 0.085-0.031 2.098-0.749 2.909-2.828 0.605-1.549 0.388-3.332-0.646-5.331C66.651 40.585 65.582 39.313 64.639 38.174z" data-fill-palette-color="accent"></path><path fill="#6a4e93" d="M44.368 55.172c0 1.906 1.551 3.456 3.457 3.456 0.538 0 1.062-0.124 1.535-0.36 0.473 0.236 0.997 0.36 1.535 0.36 1.905 0 3.457-1.55 3.457-3.456 0-1.494-2.303-3.739-4.232-5.36-0.439-0.369-1.08-0.369-1.52 0C46.669 51.433 44.368 53.678 44.368 55.172z" data-fill-palette-color="accent"></path><path fill="#6a4e93" d="M82.185 40c-2.39-5.251-3.231-7.245-4.788-14.208-1.869-8.359-7.336-14.743-15.795-18.076C55.298 5.233 49.613 5 49.364 5h-0.003c-0.25 0-5.933 0.233-12.236 2.716-8.458 3.333-13.917 9.615-15.787 17.975-1.557 6.963-2.388 9.008-4.777 14.259-5.587 12.283 0.144 19.216 5.687 25.896 1.896 2.284 7.574 11.598 7.915 12.821 1.843 6.618 3.038 11.034 11.892 12.325 1.583 2.256 3.901 4.088 7.327 4.088 3.426 0 5.754-1.832 7.336-4.088 8.854-1.291 9.992-5.707 11.834-12.325 0.342-1.222 2.582-5.589 2.582-5.589l0.058 0.004c-0.003-0.001 0.017-0.003 0.014-0.004 1.549-2.59 3.427-4.923 5.321-7.207C82.067 59.191 87.772 52.284 82.185 40zM71.68 50.095c-1.869 1.567-3.707 3.738-3.707 3.738-2.188 2.579-7.588 10.521-10.477 28.513-0.002 0.01-0.003 0.021-0.004 0.031-0.015 0.104-1.454 10.342-8.133 10.342-6.658 0-8.117-10.24-8.131-10.342-0.002-0.01-0.003-0.021-0.004-0.031-2.889-17.99-8.288-25.934-10.476-28.513 0 0-1.841-2.173-3.708-3.738-2.894-2.426-1.725-4.789 0.103-7.626 0 0 1.747-3.02 2.744-6.35 0.274-0.919 2.562-9.364 2.659-9.723 0.004-0.014 0.007-0.027 0.011-0.042 1.82-7.853 8.729-13.337 16.803-13.337 8.075 0 14.985 5.484 16.804 13.337 0.003 0.015 0.007 0.028 0.011 0.042 0.098 0.359 2.385 8.804 2.659 9.723 0.995 3.329 2.744 6.35 2.744 6.35C73.406 45.306 74.574 47.669 71.68 50.095z" data-fill-palette-color="accent"></path></g></svg></g></svg></g></svg></g></svg></g></svg></g></svg></g><defs></defs></svg><rect width="74.41002516900335" height="95.481" fill="none" stroke="none" visibility="hidden"></rect></g></svg></g></svg>