<?xml version="1.0" encoding="UTF-8"?><svg id="Layer_1" xmlns="http://www.w3.org/2000/svg" viewBox="0 0 3477.26 329.49"><defs><style>.cls-1{fill:#6a569a;}</style></defs><g><path class="cls-1" d="M168.37,93.33v235.7H73.03V93.33H0V.02H241.17V93.33h-72.8Z"/><path class="cls-1" d="M401.26,115.46v85.16h-26.53v127.4h-95.34V.02h95.34V115.46h26.53ZM512.81,.02V328.02h-95.34V.02h95.34Z"/><path class="cls-1" d="M672.26,86.95v241.07h-95.34V.18h122.34c37.26,0,66.14,9.3,86.65,27.9,22.85,20.81,34.28,47.21,34.28,79.21s-14.17,60.14-42.5,82.52l54.95,138.22h-100.03l-46.26-109.14v-82.99h7.51c20.04,0,30.06-8.67,30.06-26.01,0-15.29-11.59-22.94-34.75-22.94h-16.91Z"/><path class="cls-1" d="M959.92,.18V328.02h-95.34V.18h95.34Z"/><path class="cls-1" d="M1017.45,.02h95.34V194.9c0,15.22,2.39,25.35,7.16,30.4,4.77,5.05,14.21,7.57,28.3,7.57h4.93v95.16h-25.37c-34.75,0-61.84-10.37-81.25-31.12-19.41-20.74-29.12-49.54-29.12-86.39V.02Z"/><path class="cls-1" d="M1178.78,.02h95.34V194.9c0,15.22,2.39,25.35,7.16,30.4,4.77,5.05,14.21,7.57,28.3,7.57h4.93v95.16h-25.37c-34.75,0-61.84-10.37-81.25-31.12-19.41-20.74-29.11-49.54-29.11-86.39V.02Z"/></g><g><path class="cls-1" d="M1494.11,92.76v235.27h-95.09V92.76h-72.84V.02h240.53V92.76h-72.6Z"/><path class="cls-1" d="M1740.63,.24c44.83,0,83.3,16.16,115.38,48.48,32.08,32.32,48.13,71,48.13,116.03s-16.16,84.71-48.47,116.72c-32.32,32.02-71.59,48.02-117.82,48.02s-85.12-16.09-117.58-48.25c-32.47-32.17-48.71-71-48.71-116.49s16.35-84.86,49.05-116.72C1653.31,16.17,1693.32,.24,1740.63,.24Zm-3.7,30.71c-25.31,0-50.61,13.5-72.03,28.94-31.88,22.97-60.35,84.5-60.35,104.17,0,4.16,33.09,27.01,35.04,36.65,6.3,31.2,5.84,77.16,19.47,77.16,11.68,0,9.07-63.5,17.52-65.59,7.79-1.93,30.96,21.29,35.04,30.86,13.44,31.55,10.6,84.88,25.31,84.88s11.11-51.86,25.31-84.88c5.13-11.93,26.14-29.62,31.15-30.86,15.57-3.86,11.68,65.59,25.31,65.59,10.66,0,11.68-40.51,21.41-75.23,3.3-11.76,29.2-28.94,29.2-34.72,0-9.65-24.09-82-52.56-104.17-27.25-21.22-50.61-32.79-79.81-32.79Z"/><path class="cls-1" d="M2082.49,145.14h89.75c19.33,23.65,28.99,48.6,28.99,74.85,0,30.52-11.33,56.16-33.98,76.91-22.65,20.75-50.53,31.13-83.61,31.13-42.98,0-79.47-16.1-109.46-48.3-30-32.2-44.99-71.41-44.99-117.65s15.26-84.99,45.8-115.82C2005.52,15.44,2043.68,.02,2089.44,.02c15.61,0,32.94,3.13,51.95,9.38V102.34c-14.84-6.87-28.37-10.3-40.59-10.3-22.11,0-40.16,6.79-54.15,20.37-13.99,13.58-20.99,31.21-20.99,52.87s6.49,39.68,19.48,52.64c12.98,12.97,30.53,19.46,52.64,19.46,14.07,0,21.1-4.04,21.1-12.13,0-6.1-4.64-9.16-13.91-9.16h-22.5v-70.96Z"/><path class="cls-1" d="M2397.42,127.6v73.05h-61.46c-8.35,0-14.26,1.29-17.74,3.85-3.48,2.56-5.22,6.89-5.22,12.98,0,6.89,1.77,11.41,5.33,13.58,3.56,2.16,10.82,3.24,21.8,3.24h63.31v93.72h-73.98c-34.79,0-61.38-8.61-79.78-25.84-18.4-17.22-27.6-42.09-27.6-74.61V99.01c0-31.4,8.7-55.75,26.09-73.05,17.39-17.3,41.86-25.95,73.4-25.95h81.87V94.2h-60.06c-16.24,0-24.35,5.45-24.35,16.34,0,6.41,1.93,10.86,5.8,13.34,3.86,2.48,10.74,3.72,20.64,3.72h51.95Z"/><path class="cls-1" d="M2606.18,95.19v233.83h-94.16V95.19h-72.13V.99h238.19V95.19h-71.9Z"/><path class="cls-1" d="M2844.16,117.28v86.51h-26.21v124.24h-94.16V.01h94.16V117.28h26.21ZM2954.32,.01V328.02h-94.16V.01h94.16Z"/><path class="cls-1" d="M3180.39,127.62v73.05h-70.02c-8.08,0-13.79,1.29-17.16,3.85-3.36,2.56-5.05,6.89-5.05,12.98,0,6.89,1.71,11.41,5.16,13.57,3.44,2.16,10.47,3.24,21.09,3.24h71.81v93.72h-82.13c-33.65,0-59.38-8.61-77.17-25.83-17.8-17.22-26.69-42.09-26.69-74.61V99.02c0-31.39,8.41-55.75,25.24-73.05C3042.28,8.67,3065.95,.02,3096.46,.02h89.76V94.22h-68.67c-15.71,0-23.56,5.45-23.56,16.34,0,6.41,1.87,10.86,5.61,13.34,3.74,2.48,10.39,3.72,19.97,3.72h60.82Z"/><path class="cls-1" d="M3318.86,88.21v239.81h-94.16V.02h120.83c36.79,0,65.32,9.45,85.58,28.35,22.57,21.14,33.86,47.98,33.86,80.5s-13.99,61.12-41.98,83.86l54.27,135.29h-98.8l-45.69-105.73v-84.34h7.42c19.79,0,29.69-8.81,29.69-26.43,0-15.54-11.44-23.31-34.32-23.31h-16.7Z"/></g></svg>