<svg width="100" height="99" viewBox="0 0 100 99" fill="none" xmlns="http://www.w3.org/2000/svg">
<g clip-path="url(#clip0_46_123)">
<path d="M50 8.44385C27 8.44385 8.33337 26.8158 8.33337 49.4526C8.33337 72.0895 27 90.4614 50 90.4614C73 90.4614 91.6667 72.0895 91.6667 49.4526C91.6667 26.8158 73 8.44385 50 8.44385ZM50 20.7465C56.9167 20.7465 62.5 26.2417 62.5 33.0491C62.5 39.8566 56.9167 45.3517 50 45.3517C43.0834 45.3517 37.5 39.8566 37.5 33.0491C37.5 26.2417 43.0834 20.7465 50 20.7465ZM50 78.9789C39.5834 78.9789 30.375 73.7298 25 65.7741C25.125 57.6134 41.6667 53.1434 50 53.1434C58.2917 53.1434 74.875 57.6134 75 65.7741C69.625 73.7298 60.4167 78.9789 50 78.9789Z" fill="#D2C69E"/>
</g>
<defs>
<clipPath id="clip0_46_123">
<rect width="100" height="98.4211" fill="white" transform="translate(0 0.242065)"/>
</clipPath>
</defs>
</svg>
