<svg width="50" height="50" viewBox="0 0 50 50" fill="none" xmlns="http://www.w3.org/2000/svg">
<g clip-path="url(#clip0_46_55)">
<path d="M22.6875 38.0833L23.875 32.0624C24.125 30.8333 23.7917 29.5624 23 28.6041C22.2083 27.6458 21.0417 27.0833 19.7917 27.0833H8.33332V24.8333L13.6875 12.4999H30.5417C30.9167 12.4999 31.25 12.8333 31.25 13.2083V29.5416L22.6875 38.0833ZM20.8333 45.8333L34.1875 32.4791C34.9792 31.6874 35.4167 30.6249 35.4167 29.5208V13.2083C35.4167 10.5208 33.2292 8.33325 30.5417 8.33325H13.6667C12.1875 8.33325 10.8333 9.10408 10.0833 10.3541L4.52082 23.1666C4.29166 23.6874 4.16666 24.2499 4.16666 24.8333V27.0833C4.16666 29.3749 6.04166 31.2499 8.33332 31.2499H19.7917L17.875 40.9374C17.7708 41.3957 17.8333 41.8957 18.0417 42.3124C18.5208 43.2499 19.125 44.1041 19.875 44.8541L20.8333 45.8333ZM41.6667 31.2499H45.8333V8.33325H41.6667C40.5208 8.33325 39.5833 9.27075 39.5833 10.4166V29.1666C39.5833 30.3124 40.5208 31.2499 41.6667 31.2499Z" fill="#EEEFF9"/>
</g>
<defs>
<clipPath id="clip0_46_55">
<rect width="50" height="50" fill="white"/>
</clipPath>
</defs>
</svg>
