<svg width="20" height="11" viewBox="0 0 20 11" fill="none" xmlns="http://www.w3.org/2000/svg">
<path d="M9.86868 0C6.03489 0 2.76083 2.14244 1.43434 5.16667C2.76083 8.19089 6.03489 10.3333 9.86868 10.3333C13.7025 10.3333 16.9765 8.19089 18.303 5.16667C16.9765 2.14244 13.7025 0 9.86868 0ZM9.86868 8.61111C7.75243 8.61111 6.03489 7.068 6.03489 5.16667C6.03489 3.26533 7.75243 1.72222 9.86868 1.72222C11.9849 1.72222 13.7025 3.26533 13.7025 5.16667C13.7025 7.068 11.9849 8.61111 9.86868 8.61111ZM9.86868 3.1C8.59587 3.1 7.56841 4.02311 7.56841 5.16667C7.56841 6.31022 8.59587 7.23333 9.86868 7.23333C11.1415 7.23333 12.169 6.31022 12.169 5.16667C12.169 4.02311 11.1415 3.1 9.86868 3.1Z" fill="#FFFEF2"/>
</svg>
