<svg width="50" height="50" viewBox="0 0 50 50" fill="none" xmlns="http://www.w3.org/2000/svg">
<g clip-path="url(#clip0_46_42)">
<path d="M27.3125 11.9167L26.125 17.9376C25.875 19.1667 26.2083 20.4376 27 21.3959C27.7916 22.3542 28.9583 22.9167 30.2083 22.9167H41.6666V25.1667L36.3125 37.5001H19.4583C19.0833 37.5001 18.75 37.1667 18.75 36.7917V20.4584L27.3125 11.9167ZM29.1666 4.16675L15.8125 17.5209C15.0208 18.3126 14.5833 19.3751 14.5833 20.4792V36.7917C14.5833 39.4792 16.7708 41.6667 19.4583 41.6667H36.3333C37.8125 41.6667 39.1666 40.8959 39.9166 39.6459L45.4791 26.8334C45.7083 26.3126 45.8333 25.7501 45.8333 25.1667V22.9167C45.8333 20.6251 43.9583 18.7501 41.6666 18.7501H30.2083L32.125 9.06258C32.2291 8.60425 32.1666 8.10425 31.9583 7.68758C31.4791 6.75008 30.875 5.89591 30.125 5.14591L29.1666 4.16675ZM8.33332 18.7501H4.16666V41.6667H8.33332C9.47915 41.6667 10.4167 40.7292 10.4167 39.5834V20.8334C10.4167 19.6876 9.47915 18.7501 8.33332 18.7501Z" fill="white"/>
</g>
<defs>
<clipPath id="clip0_46_42">
<rect width="50" height="50" fill="white"/>
</clipPath>
</defs>
</svg>
