<svg width="220" height="128" viewBox="0 0 220 128" fill="none" xmlns="http://www.w3.org/2000/svg">
<rect width="220" height="128" fill="#D2C69E"/>
<path d="M73.3203 74.5156V80H56.1406V74.5156H73.3203ZM58.4141 45.875V80H51.3828V45.875H58.4141ZM103.836 62.1406V63.7578C103.836 66.3516 103.484 68.6797 102.781 70.7422C102.078 72.8047 101.086 74.5625 99.8047 76.0156C98.5234 77.4531 96.9922 78.5547 95.2109 79.3203C93.4453 80.0859 91.4844 80.4688 89.3281 80.4688C87.1875 80.4688 85.2266 80.0859 83.4453 79.3203C81.6797 78.5547 80.1484 77.4531 78.8516 76.0156C77.5547 74.5625 76.5469 72.8047 75.8281 70.7422C75.125 68.6797 74.7734 66.3516 74.7734 63.7578V62.1406C74.7734 59.5312 75.125 57.2031 75.8281 55.1562C76.5312 53.0938 77.5234 51.3359 78.8047 49.8828C80.1016 48.4297 81.6328 47.3203 83.3984 46.5547C85.1797 45.7891 87.1406 45.4062 89.2812 45.4062C91.4375 45.4062 93.3984 45.7891 95.1641 46.5547C96.9453 47.3203 98.4766 48.4297 99.7578 49.8828C101.055 51.3359 102.055 53.0938 102.758 55.1562C103.477 57.2031 103.836 59.5312 103.836 62.1406ZM96.7344 63.7578V62.0938C96.7344 60.2812 96.5703 58.6875 96.2422 57.3125C95.9141 55.9375 95.4297 54.7812 94.7891 53.8438C94.1484 52.9062 93.3672 52.2031 92.4453 51.7344C91.5234 51.25 90.4688 51.0078 89.2812 51.0078C88.0938 51.0078 87.0391 51.25 86.1172 51.7344C85.2109 52.2031 84.4375 52.9062 83.7969 53.8438C83.1719 54.7812 82.6953 55.9375 82.3672 57.3125C82.0391 58.6875 81.875 60.2812 81.875 62.0938V63.7578C81.875 65.5547 82.0391 67.1484 82.3672 68.5391C82.6953 69.9141 83.1797 71.0781 83.8203 72.0312C84.4609 72.9688 85.2422 73.6797 86.1641 74.1641C87.0859 74.6484 88.1406 74.8906 89.3281 74.8906C90.5156 74.8906 91.5703 74.6484 92.4922 74.1641C93.4141 73.6797 94.1875 72.9688 94.8125 72.0312C95.4375 71.0781 95.9141 69.9141 96.2422 68.5391C96.5703 67.1484 96.7344 65.5547 96.7344 63.7578ZM135.945 62.1641V75.6875C135.414 76.3281 134.594 77.0234 133.484 77.7734C132.375 78.5078 130.945 79.1406 129.195 79.6719C127.445 80.2031 125.328 80.4688 122.844 80.4688C120.641 80.4688 118.633 80.1094 116.82 79.3906C115.008 78.6562 113.445 77.5859 112.133 76.1797C110.836 74.7734 109.836 73.0547 109.133 71.0234C108.43 68.9766 108.078 66.6406 108.078 64.0156V61.8828C108.078 59.2578 108.414 56.9219 109.086 54.875C109.773 52.8281 110.75 51.1016 112.016 49.6953C113.281 48.2891 114.789 47.2188 116.539 46.4844C118.289 45.75 120.234 45.3828 122.375 45.3828C125.344 45.3828 127.781 45.8672 129.688 46.8359C131.594 47.7891 133.047 49.1172 134.047 50.8203C135.062 52.5078 135.688 54.4453 135.922 56.6328H129.102C128.93 55.4766 128.602 54.4688 128.117 53.6094C127.633 52.75 126.938 52.0781 126.031 51.5938C125.141 51.1094 123.984 50.8672 122.562 50.8672C121.391 50.8672 120.344 51.1094 119.422 51.5938C118.516 52.0625 117.75 52.7578 117.125 53.6797C116.5 54.6016 116.023 55.7422 115.695 57.1016C115.367 58.4609 115.203 60.0391 115.203 61.8359V64.0156C115.203 65.7969 115.375 67.375 115.719 68.75C116.062 70.1094 116.57 71.2578 117.242 72.1953C117.93 73.1172 118.773 73.8125 119.773 74.2812C120.773 74.75 121.938 74.9844 123.266 74.9844C124.375 74.9844 125.297 74.8906 126.031 74.7031C126.781 74.5156 127.383 74.2891 127.836 74.0234C128.305 73.7422 128.664 73.4766 128.914 73.2266V67.1797H122.492V62.1641H135.945ZM169.648 62.1406V63.7578C169.648 66.3516 169.297 68.6797 168.594 70.7422C167.891 72.8047 166.898 74.5625 165.617 76.0156C164.336 77.4531 162.805 78.5547 161.023 79.3203C159.258 80.0859 157.297 80.4688 155.141 80.4688C153 80.4688 151.039 80.0859 149.258 79.3203C147.492 78.5547 145.961 77.4531 144.664 76.0156C143.367 74.5625 142.359 72.8047 141.641 70.7422C140.938 68.6797 140.586 66.3516 140.586 63.7578V62.1406C140.586 59.5312 140.938 57.2031 141.641 55.1562C142.344 53.0938 143.336 51.3359 144.617 49.8828C145.914 48.4297 147.445 47.3203 149.211 46.5547C150.992 45.7891 152.953 45.4062 155.094 45.4062C157.25 45.4062 159.211 45.7891 160.977 46.5547C162.758 47.3203 164.289 48.4297 165.57 49.8828C166.867 51.3359 167.867 53.0938 168.57 55.1562C169.289 57.2031 169.648 59.5312 169.648 62.1406ZM162.547 63.7578V62.0938C162.547 60.2812 162.383 58.6875 162.055 57.3125C161.727 55.9375 161.242 54.7812 160.602 53.8438C159.961 52.9062 159.18 52.2031 158.258 51.7344C157.336 51.25 156.281 51.0078 155.094 51.0078C153.906 51.0078 152.852 51.25 151.93 51.7344C151.023 52.2031 150.25 52.9062 149.609 53.8438C148.984 54.7812 148.508 55.9375 148.18 57.3125C147.852 58.6875 147.688 60.2812 147.688 62.0938V63.7578C147.688 65.5547 147.852 67.1484 148.18 68.5391C148.508 69.9141 148.992 71.0781 149.633 72.0312C150.273 72.9688 151.055 73.6797 151.977 74.1641C152.898 74.6484 153.953 74.8906 155.141 74.8906C156.328 74.8906 157.383 74.6484 158.305 74.1641C159.227 73.6797 160 72.9688 160.625 72.0312C161.25 71.0781 161.727 69.9141 162.055 68.5391C162.383 67.1484 162.547 65.5547 162.547 63.7578Z" fill="black"/>
</svg>
