<svg width="90" height="89" viewBox="0 0 90 89" fill="none" xmlns="http://www.w3.org/2000/svg">
<path d="M58.125 51.8816H55.1625L54.1125 50.8851C57.7875 46.6776 60 41.2153 60 35.2731C60 22.0232 49.0875 11.283 35.625 11.283C22.1625 11.283 11.25 22.0232 11.25 35.2731C11.25 48.523 22.1625 59.2632 35.625 59.2632C41.6625 59.2632 47.2125 57.0857 51.4875 53.4687L52.5 54.5021V57.4178L71.25 75.8349L76.8375 70.3356L58.125 51.8816ZM35.625 51.8816C26.2875 51.8816 18.75 44.4632 18.75 35.2731C18.75 26.083 26.2875 18.6645 35.625 18.6645C44.9625 18.6645 52.5 26.083 52.5 35.2731C52.5 44.4632 44.9625 51.8816 35.625 51.8816Z" fill="#D2C69E"/>
</svg>
